HIERARCHY
ROOT Hips
{
	OFFSET 55.310501 45.591206 43.872097
	CHANNELS 6 Xposition Yposition Zposition Zrotation Xrotation Yrotation
	JOINT Chest
	{
		OFFSET -0.153500 1.163101 7.852402
		CHANNELS 6 Xposition Yposition Zposition Zrotation Xrotation Yrotation
		JOINT Chest2
		{
			OFFSET 0.000000 0.000000 3.343300
			CHANNELS 6 Xposition Yposition Zposition Zrotation Xrotation Yrotation
			JOINT Neck
			{
				OFFSET 0.000000 0.000000 7.785500
				CHANNELS 6 Xposition Yposition Zposition Zrotation Xrotation Yrotation
				JOINT Head
				{
					OFFSET 0.000000 0.000000 2.173901
					CHANNELS 6 Xposition Yposition Zposition Zrotation Xrotation Yrotation
					End Site
					{
						OFFSET 0.000000 0.000000 10.528198
					}
				}
			}
			JOINT LeftCollar
			{
				OFFSET 2.676300 -1.652401 4.938301
				CHANNELS 6 Xposition Yposition Zposition Zrotation Xrotation Yrotation
				JOINT LeftShoulder
				{
					OFFSET 4.299000 0.000000 0.000000
					CHANNELS 6 Xposition Yposition Zposition Zrotation Xrotation Yrotation
					JOINT LeftElbow
					{
						OFFSET 0.000000 0.000000 -10.245102
						CHANNELS 6 Xposition Yposition Zposition Zrotation Xrotation Yrotation
						JOINT LeftWrist
						{
							OFFSET 0.000000 0.000000 -12.703300
							CHANNELS 6 Xposition Yposition Zposition Zrotation Xrotation Yrotation
							End Site
							{
								OFFSET 0.000000 0.000000 -2.173901
							}
						}
					}
				}
			}
			JOINT RightCollar
			{
				OFFSET -2.534599 -1.686401 5.195000
				CHANNELS 6 Xposition Yposition Zposition Zrotation Xrotation Yrotation
				JOINT RightShoulder
				{
					OFFSET -4.144100 0.000000 0.000000
					CHANNELS 6 Xposition Yposition Zposition Zrotation Xrotation Yrotation
					JOINT RightElbow
					{
						OFFSET 0.000000 0.000000 -10.116501
						CHANNELS 6 Xposition Yposition Zposition Zrotation Xrotation Yrotation
						JOINT RightWrist
						{
							OFFSET 0.000000 0.000000 -12.937801
							CHANNELS 6 Xposition Yposition Zposition Zrotation Xrotation Yrotation
							End Site
							{
								OFFSET 0.000000 0.000000 -2.173901
							}
						}
					}
				}
			}
		}
	}
	JOINT LeftHip
	{
		OFFSET 2.175598 0.064499 -2.662899
		CHANNELS 6 Xposition Yposition Zposition Zrotation Xrotation Yrotation
		JOINT LeftKnee
		{
			OFFSET 0.000000 -0.000004 -18.585800
			CHANNELS 6 Xposition Yposition Zposition Zrotation Xrotation Yrotation
			JOINT LeftAnkle
			{
				OFFSET 0.000000 0.000000 -18.979500
				CHANNELS 6 Xposition Yposition Zposition Zrotation Xrotation Yrotation
				End Site
				{
					OFFSET 0.000000 -9.264000 0.000000
				}
			}
		}
	}
	JOINT RightHip
	{
		OFFSET -2.092400 -0.058102 -2.581200
		CHANNELS 6 Xposition Yposition Zposition Zrotation Xrotation Yrotation
		JOINT RightKnee
		{
			OFFSET 0.000000 -0.000004 -18.665001
			CHANNELS 6 Xposition Yposition Zposition Zrotation Xrotation Yrotation
			JOINT RightAnkle
			{
				OFFSET 0.000000 0.000000 -18.566601
				CHANNELS 6 Xposition Yposition Zposition Zrotation Xrotation Yrotation
				End Site
				{
					OFFSET 0.000000 -8.497601 0.000000
				}
			}
		}
	}
}
MOTION
Frames: 7
Frame Time: 0.041667
49.749901 50.366100 41.848690 346.129426 0.636417 19.555786 -0.153496 1.163095 7.852415 11.918202 8.991062 2.263448 0.000004 0.000002 3.343304 -22.480207 -5.775632 -2.700528 0.000010 0.000002 7.785493 48.558636 -9.691505 -27.247223 -0.000010 0.000005 2.173911 4.734609 -0.703089 4.846627 2.676300 -1.652392 4.938293 -1.699008 1.912453 8.988412 4.299003 0.000010 -0.000010 -14.251465 -14.440036 -81.125790 -0.000003 0.000003 -10.245109 241.918088 196.529992 184.054337 -0.000009 -0.000006 -12.703300 67.179439 -9.205015 50.595507 -2.534597 -1.686399 5.194991 3.961796 6.937911 1.008419 -4.144100 0.000002 -0.000001 2.978120 18.686793 66.567775 0.000000 -0.000009 -10.116507 -49.502066 -41.390779 -78.042267 0.000005 -0.000003 -12.937798 -31.098654 -33.728164 -44.804644 2.175600 0.064488 -2.662889 -202.832317 -24.497341 77.373530 -0.000014 0.000001 -18.585800 4.662434 -204.669774 -81.295985 -0.000001 -0.000007 -18.979500 408.571753 -7.441378 31.906696 -2.092400 -0.058110 -2.581190 -8.693934 -6.763039 -22.932879 -0.000000 -0.000018 -18.664999 -724.576520 32.452169 -13.451357 0.000006 -0.000007 -18.566603 725.140748 6.750197 8.838483
49.747398 50.367298 41.841297 346.619478 0.805059 19.487397 -0.153501 1.163101 7.852407 11.395062 9.020390 2.301922 0.000013 0.000006 3.343302 -22.438964 -5.797841 -2.694689 -0.000002 -0.000007 7.785504 48.581582 -9.740580 -27.259809 -0.000002 0.000005 2.173909 4.605366 -0.759688 4.855952 2.676293 -1.652402 4.938300 -1.785083 1.972515 9.013321 4.299000 0.000000 -0.000003 -14.130373 -14.481724 -81.115190 -0.000005 0.000008 -10.245108 241.713619 196.556220 184.051373 -0.000005 -0.000004 -12.703299 67.251579 -9.239499 50.655900 -2.534603 -1.686401 5.194999 4.032913 6.988531 0.963365 -4.144094 0.000001 -0.000003 2.829804 18.562335 66.602711 0.000008 0.000005 -10.116495 -49.583123 -41.394320 -78.232570 0.000006 -0.000005 -12.937809 -31.063950 -33.576643 -44.545135 2.175604 0.064493 -2.662889 -203.409987 -24.575608 77.305570 -0.000002 0.000017 -18.585804 4.774707 -205.271295 -81.238290 -0.000005 -0.000008 -18.979502 408.017360 -7.281914 31.447677 -2.092398 -0.058109 -2.581195 -9.186398 -6.864460 -22.893218 0.000002 -0.000007 -18.665009 -724.107149 32.581447 -13.623655 0.000005 0.000001 -18.566603 724.778420 6.516881 8.623758
49.749100 50.367905 41.832397 346.962736 0.996131 19.395591 -0.153498 1.163111 7.852403 10.995023 8.990085 2.385645 0.000004 0.000004 3.343293 -22.392319 -5.819516 -2.688597 0.000002 0.000005 7.785507 48.577969 -9.795209 -27.255209 0.000004 0.000006 2.173903 4.519707 -0.814462 4.869213 2.676302 -1.652399 4.938304 -1.867572 2.030165 9.037510 4.299004 -0.000003 -0.000010 -14.040349 -14.417908 -81.118236 -0.000007 0.000001 -10.245100 241.606194 196.565222 184.034639 -0.000011 0.000002 -12.703298 67.153061 -9.411187 50.574098 -2.534594 -1.686399 5.194997 4.024797 6.985591 0.931409 -4.144107 -0.000004 0.000002 2.796615 18.449162 66.593443 0.000008 -0.000001 -10.116494 -49.598020 -41.320025 -78.336491 0.000006 -0.000001 -12.937813 -30.999141 -33.435613 -44.344908 2.175605 0.064495 -2.662896 -203.811725 -24.486341 77.262349 0.000000 0.000006 -18.585808 4.797604 -205.782712 -81.173322 -0.000008 0.000006 -18.979500 407.536569 -7.153915 31.032193 -2.092400 -0.058102 -2.581192 -9.565751 -7.047224 -22.823927 -0.000001 -0.000008 -18.665001 -723.386428 32.709311 -13.925019 -0.000001 -0.000007 -18.566601 724.264681 6.226392 8.352742
49.755497 50.367699 41.821693 347.202530 1.130037 19.286014 -0.153504 1.163100 7.852401 10.702394 8.999080 2.506125 0.000001 0.000003 3.343306 -22.350281 -5.844513 -2.684598 0.000002 0.000000 7.785507 48.551034 -9.887557 -27.246916 -0.000010 0.000004 2.173904 4.486285 -0.842011 4.873439 2.676295 -1.652399 4.938309 -1.898056 2.059775 9.038016 4.299000 0.000001 0.000003 -14.001966 -14.301355 -81.120074 -0.000008 0.000007 -10.245110 241.621876 196.554785 184.029912 -0.000012 0.000000 -12.703302 67.088133 -9.467002 50.652014 -2.534593 -1.686400 5.195007 3.941704 6.938112 0.885189 -4.144100 0.000005 0.000000 2.899779 18.362851 66.563089 -0.000011 0.000003 -10.116491 -49.532727 -41.288838 -78.319887 0.000011 -0.000007 -12.937794 -31.014984 -33.356868 -44.257242 2.175601 0.064499 -2.662889 -204.058172 -24.307197 77.211641 -0.000002 0.000009 -18.585800 4.727825 -206.130478 -81.110279 -0.000007 -0.000002 -18.979498 407.188967 -7.060446 30.696202 -2.092396 -0.058112 -2.581198 -9.854727 -7.226315 -22.727301 0.000004 -0.000007 -18.665001 -722.557079 32.864685 -14.274287 0.000004 -0.000006 -18.566605 723.693076 5.911387 8.101835
49.767506 50.366302 41.808887 347.330938 1.198909 19.165885 -0.153499 1.163107 7.852408 10.532401 9.045415 2.642180 0.000010 0.000002 3.343304 -22.313069 -5.870988 -2.684008 -0.000004 -0.000003 7.785501 48.513717 -10.000953 -27.224955 0.000006 0.000003 2.173903 4.498872 -0.849303 4.879981 2.676291 -1.652400 4.938302 -1.859094 2.020660 9.030131 4.299013 0.000004 -0.000009 -14.019052 -14.123675 -81.103135 -0.000017 -0.000005 -10.245111 241.695697 196.555236 184.040417 -0.000006 -0.000006 -12.703293 67.004245 -9.505142 50.688832 -2.534597 -1.686406 5.194997 3.864661 6.892591 0.845435 -4.144100 0.000003 -0.000001 3.002529 18.213954 66.528638 -0.000002 -0.000002 -10.116494 -49.382452 -41.235573 -78.267534 0.000004 -0.000000 -12.937803 -31.041974 -33.313923 -44.209294 2.175588 0.064492 -2.662879 -204.161772 -24.096004 77.147219 -0.000010 0.000007 -18.585800 4.608405 -206.291097 -81.042817 -0.000001 0.000004 -18.979498 406.998706 -7.012756 30.453300 -2.092401 -0.058106 -2.581193 -10.057215 -7.393816 -22.601354 0.000003 -0.000001 -18.664997 -722.153005 33.087960 -14.442995 0.000008 -0.000002 -18.566605 723.403585 5.753521 8.125783
49.783501 50.363403 41.793793 347.341320 1.195972 19.062121 -0.153502 1.163102 7.852398 10.498309 9.129750 2.762536 0.000002 0.000004 3.343308 -22.282162 -5.903687 -2.687428 0.000002 -0.000004 7.785499 48.475348 -10.132534 -27.193923 -0.000005 -0.000001 2.173919 4.527221 -0.851682 4.887291 2.676305 -1.652401 4.938302 -1.741712 1.909555 9.030012 4.298999 -0.000002 -0.000002 -14.105127 -13.849039 -81.079680 -0.000008 0.000000 -10.245107 241.797986 196.572885 184.048545 -0.000000 0.000010 -12.703302 66.955702 -9.518789 50.681971 -2.534593 -1.686394 5.195001 3.823845 6.880101 0.811742 -4.144099 0.000005 -0.000003 3.080388 17.982339 66.487834 -0.000002 -0.000009 -10.116496 -49.169931 -41.091422 -78.180743 0.000008 0.000000 -12.937798 -30.984641 -33.330155 -44.252502 2.175607 0.064491 -2.662904 -204.121255 -23.914130 77.083637 0.000001 0.000011 -18.585798 4.492801 -206.342501 -80.980826 -0.000005 0.000003 -18.979502 406.896171 -6.975347 30.230981 -2.092399 -0.058107 -2.581203 -10.103694 -7.533102 -22.480436 -0.000007 -0.000004 -18.665005 -722.126722 33.316088 -14.457024 0.000004 -0.000007 -18.566599 723.315995 5.746598 8.356613
49.805202 50.358101 41.775093 347.340446 1.173637 18.936561 -0.153500 1.163108 7.852400 10.477428 9.238047 2.902352 0.000010 0.000003 3.343295 -22.256200 -5.943109 -2.694144 -0.000006 -0.000006 7.785501 48.441481 -10.274222 -27.159706 -0.000004 0.000007 2.173908 4.571243 -0.848464 4.898917 2.676294 -1.652400 4.938299 -1.567010 1.747719 9.041426 4.299007 0.000008 -0.000012 -14.226224 -13.548061 -81.028802 0.000002 0.000001 -10.245104 241.868801 196.653085 184.064828 -0.000010 0.000011 -12.703298 66.969711 -9.498235 50.595398 -2.534603 -1.686400 5.194994 3.838443 6.920982 0.769061 -4.144108 0.000000 0.000004 3.153794 17.724761 66.427804 0.000004 0.000001 -10.116497 -48.957929 -40.905279 -78.027589 0.000011 -0.000006 -12.937803 -30.874484 -33.425559 -44.430582 2.175593 0.064498 -2.662897 -204.039990 -23.670705 77.003361 -0.000009 0.000009 -18.585800 4.337711 -206.226115 -80.956053 -0.000006 -0.000001 -18.979502 406.927918 -6.920747 30.032205 -2.092402 -0.058099 -2.581206 -10.097725 -7.666974 -22.311026 -0.000000 -0.000011 -18.665005 -722.434627 33.539053 -14.355634 -0.000002 -0.000008 -18.566601 723.409650 5.880018 8.732764
